<svg width="112" height="27" viewBox="0 0 112 27" fill="none" xmlns="http://www.w3.org/2000/svg">
<path d="M9.55852 0.727999C12.2225 0.727999 14.5505 1.256 16.5425 2.312C18.5345 3.368 20.0705 4.856 21.1505 6.776C22.2545 8.672 22.8065 10.868 22.8065 13.364C22.8065 15.836 22.2545 18.032 21.1505 19.952C20.0705 21.872 18.5225 23.36 16.5065 24.416C14.5145 25.472 12.1985 26 9.55852 26H0.0905168V0.727999H9.55852ZM9.16252 20.672C11.4905 20.672 13.3025 20.036 14.5985 18.764C15.8945 17.492 16.5425 15.692 16.5425 13.364C16.5425 11.036 15.8945 9.224 14.5985 7.928C13.3025 6.632 11.4905 5.984 9.16252 5.984H6.24652V20.672H9.16252ZM36.7588 26.252C34.3828 26.252 32.1988 25.7 30.2068 24.596C28.2388 23.492 26.6668 21.956 25.4908 19.988C24.3388 17.996 23.7628 15.764 23.7628 13.292C23.7628 10.82 24.3388 8.6 25.4908 6.632C26.6668 4.664 28.2388 3.128 30.2068 2.024C32.1988 0.92 34.3828 0.368 36.7588 0.368C39.1348 0.368 41.3068 0.92 43.2748 2.024C45.2668 3.128 46.8268 4.664 47.9548 6.632C49.1068 8.6 49.6828 10.82 49.6828 13.292C49.6828 15.764 49.1068 17.996 47.9548 19.988C46.8028 21.956 45.2428 23.492 43.2748 24.596C41.3068 25.7 39.1348 26.252 36.7588 26.252ZM36.7588 20.636C38.7748 20.636 40.3828 19.964 41.5828 18.62C42.8068 17.276 43.4188 15.5 43.4188 13.292C43.4188 11.06 42.8068 9.284 41.5828 7.964C40.3828 6.62 38.7748 5.948 36.7588 5.948C34.7188 5.948 33.0868 6.608 31.8628 7.928C30.6628 9.248 30.0628 11.036 30.0628 13.292C30.0628 15.524 30.6628 17.312 31.8628 18.656C33.0868 19.976 34.7188 20.636 36.7588 20.636ZM94.764 0.727999L85.8 26H78.096L69.132 0.727999H75.684L81.948 19.808L88.248 0.727999H94.764ZM102.053 5.66V10.772H110.297V15.524H102.053V21.068H111.377V26H95.8969V0.727999H111.377V5.66H102.053Z" fill="#6A2CD8"/>
<path d="M67.5075 0.727999V17.936C67.5075 20.6 66.7515 22.652 65.2395 24.092C63.7515 25.532 61.7355 26.252 59.1915 26.252C56.5275 26.252 54.3915 25.496 52.7835 23.984C51.1755 22.472 50.3715 20.324 50.3715 17.54H56.4915C56.4915 18.596 56.7075 19.4 57.1395 19.952C57.5715 20.48 58.1955 20.744 59.0115 20.744C59.7555 20.744 60.3315 20.504 60.7395 20.024C61.1475 19.544 61.3515 18.848 61.3515 17.936V0.727999H67.5075Z" fill="#6EF9D0"/>
</svg>
